<svg width="190" height="45" viewBox="0 0 190 45" fill="none" xmlns="http://www.w3.org/2000/svg">
<rect width="190" height="45" rx="3" fill="#042646"/>
<path d="M45.2409 14.3125H48.34V28.3777H57.0652V31H45.2409V14.3125ZM62.5633 18.2698H65.5432V31H62.5633V18.2698ZM64.0652 16.172C63.5248 16.172 63.0719 16.0051 62.7063 15.6713C62.3408 15.3217 62.158 14.8926 62.158 14.384C62.158 13.8754 62.3408 13.4543 62.7063 13.1205C63.0719 12.7709 63.5248 12.5961 64.0652 12.5961C64.6055 12.5961 65.0585 12.7629 65.424 13.0967C65.7896 13.4146 65.9723 13.8198 65.9723 14.3125C65.9723 14.837 65.7896 15.282 65.424 15.6475C65.0744 15.9971 64.6214 16.172 64.0652 16.172ZM80.0152 18.1268C81.6203 18.1268 82.9077 18.5956 83.8771 19.5333C84.8466 20.471 85.3313 21.8616 85.3313 23.7052V31H82.3514V24.0866C82.3514 22.9741 82.0892 22.1397 81.5647 21.5835C81.0402 21.0113 80.2933 20.7253 79.3238 20.7253C78.2272 20.7253 77.361 21.059 76.7253 21.7265C76.0896 22.3781 75.7718 23.3237 75.7718 24.5634V31H72.7918V18.2698H75.6287V19.9147C76.1214 19.3267 76.7412 18.8817 77.4882 18.5797C78.2352 18.2778 79.0775 18.1268 80.0152 18.1268ZM97.646 25.5408L95.4289 27.6387V31H92.449V13.3112H95.4289V23.9912L101.603 18.2698H105.179L99.863 23.6098L105.68 31H102.056L97.646 25.5408ZM122.374 24.7064C122.374 24.913 122.358 25.2071 122.326 25.5885H112.338C112.513 26.5262 112.965 27.2731 113.697 27.8294C114.443 28.3697 115.365 28.6399 116.462 28.6399C117.86 28.6399 119.013 28.179 119.919 27.2572L121.516 29.0929C120.944 29.7762 120.221 30.2928 119.346 30.6424C118.472 30.9921 117.487 31.1669 116.39 31.1669C114.992 31.1669 113.76 30.8887 112.695 30.3325C111.63 29.7762 110.804 29.0054 110.216 28.0201C109.644 27.0188 109.358 25.8904 109.358 24.6349C109.358 23.3953 109.636 22.2828 110.192 21.2974C110.764 20.2962 111.551 19.5174 112.552 18.9612C113.553 18.4049 114.682 18.1268 115.937 18.1268C117.177 18.1268 118.282 18.4049 119.251 18.9612C120.236 19.5015 120.999 20.2723 121.54 21.2736C122.096 22.2589 122.374 23.4032 122.374 24.7064ZM115.937 20.5107C114.984 20.5107 114.173 20.7968 113.506 21.3689C112.854 21.9252 112.457 22.6721 112.314 23.6098H119.537C119.41 22.688 119.021 21.9411 118.369 21.3689C117.717 20.7968 116.907 20.5107 115.937 20.5107ZM141.042 13.3112V31H138.181V29.3551C137.688 29.959 137.077 30.412 136.346 30.7139C135.63 31.0159 134.836 31.1669 133.962 31.1669C132.738 31.1669 131.633 30.8967 130.648 30.3563C129.678 29.816 128.916 29.0531 128.359 28.0678C127.803 27.0665 127.525 25.9222 127.525 24.6349C127.525 23.3476 127.803 22.2112 128.359 21.2259C128.916 20.2405 129.678 19.4777 130.648 18.9373C131.633 18.397 132.738 18.1268 133.962 18.1268C134.804 18.1268 135.575 18.2698 136.274 18.5559C136.973 18.842 137.569 19.2711 138.062 19.8432V13.3112H141.042ZM134.319 28.6161C135.034 28.6161 135.678 28.4571 136.25 28.1393C136.822 27.8055 137.275 27.3367 137.609 26.7328C137.943 26.1288 138.11 25.4296 138.11 24.6349C138.11 23.8403 137.943 23.141 137.609 22.5371C137.275 21.9331 136.822 21.4722 136.25 21.1544C135.678 20.8206 135.034 20.6537 134.319 20.6537C133.604 20.6537 132.96 20.8206 132.388 21.1544C131.816 21.4722 131.363 21.9331 131.029 22.5371C130.696 23.141 130.529 23.8403 130.529 24.6349C130.529 25.4296 130.696 26.1288 131.029 26.7328C131.363 27.3367 131.816 27.8055 132.388 28.1393C132.96 28.4571 133.604 28.6161 134.319 28.6161ZM148.564 14.3125H151.663V31H148.564V14.3125ZM166.451 18.1268C168.056 18.1268 169.344 18.5956 170.313 19.5333C171.283 20.471 171.767 21.8616 171.767 23.7052V31H168.787V24.0866C168.787 22.9741 168.525 22.1397 168.001 21.5835C167.476 21.0113 166.729 20.7253 165.76 20.7253C164.663 20.7253 163.797 21.059 163.161 21.7265C162.526 22.3781 162.208 23.3237 162.208 24.5634V31H159.228V18.2698H162.065V19.9147C162.557 19.3267 163.177 18.8817 163.924 18.5797C164.671 18.2778 165.514 18.1268 166.451 18.1268Z" fill="white"/>
<path d="M38.7273 10H18.2727C17.017 10 16 11.017 16 12.2727V32.7273C16 33.983 17.017 35 18.2727 35H38.7273C39.983 35 41 33.983 41 32.7273V12.2727C41 11.017 39.983 10 38.7273 10ZM23.9023 30.4545H20.55V19.6682H23.9023V30.4545ZM22.192 18.1261C21.1114 18.1261 20.2375 17.25 20.2375 16.1716C20.2375 15.0932 21.1125 14.2182 22.192 14.2182C23.2693 14.2182 24.1455 15.0943 24.1455 16.1716C24.1455 17.25 23.2693 18.1261 22.192 18.1261ZM36.4591 30.4545H33.1091V25.2091C33.1091 23.958 33.0864 22.3489 31.367 22.3489C29.6227 22.3489 29.3545 23.7114 29.3545 25.1182V30.4545H26.0045V19.6682H29.2205V21.142H29.2659C29.7136 20.2943 30.8068 19.4 32.4375 19.4C35.8318 19.4 36.4591 21.6341 36.4591 24.5386V30.4545V30.4545Z" fill="white"/>
</svg>
