<svg width="552" height="237" viewBox="0 0 552 237" fill="none" xmlns="http://www.w3.org/2000/svg">
<rect width="190" height="45" rx="3" fill="#042646"/>
<path d="M53.0689 14.3125V31H50.5181L41.3162 19.7002V31H38.2409V14.3125H40.7917L49.9937 25.6123V14.3125H53.0689ZM72.5592 24.7064C72.5592 24.913 72.5433 25.2071 72.5115 25.5885H62.5229C62.6977 26.5262 63.1507 27.2731 63.8817 27.8294C64.6287 28.3697 65.5505 28.6399 66.6471 28.6399C68.0457 28.6399 69.1979 28.179 70.1038 27.2572L71.701 29.0929C71.1289 29.7762 70.4057 30.2928 69.5316 30.6424C68.6575 30.9921 67.6722 31.1669 66.5756 31.1669C65.177 31.1669 63.9453 30.8887 62.8805 30.3325C61.8157 29.7762 60.9892 29.0054 60.4012 28.0201C59.829 27.0188 59.543 25.8904 59.543 24.6349C59.543 23.3953 59.8211 22.2828 60.3773 21.2974C60.9495 20.2962 61.7362 19.5174 62.7374 18.9612C63.7387 18.4049 64.8671 18.1268 66.1226 18.1268C67.3623 18.1268 68.4668 18.4049 69.4363 18.9612C70.4216 19.5015 71.1845 20.2723 71.7248 21.2736C72.2811 22.2589 72.5592 23.4032 72.5592 24.7064ZM66.1226 20.5107C65.169 20.5107 64.3585 20.7968 63.691 21.3689C63.0394 21.9252 62.6421 22.6721 62.499 23.6098H69.7223C69.5952 22.688 69.2058 21.9411 68.5542 21.3689C67.9026 20.7968 67.0921 20.5107 66.1226 20.5107ZM86.5153 31L83.2493 26.5897L79.9595 31H76.6696L81.6282 24.5396L76.8842 18.2698H80.1979L83.3208 22.4417L86.4437 18.2698H89.6621L84.8942 24.4919L89.8766 31H86.5153ZM103.066 30.3087C102.716 30.5947 102.287 30.8093 101.778 30.9523C101.286 31.0954 100.761 31.1669 100.205 31.1669C98.8062 31.1669 97.7255 30.8013 96.9626 30.0703C96.1998 29.3392 95.8184 28.2744 95.8184 26.8758V20.7491H93.7205V18.3652H95.8184V15.4568H98.7983V18.3652H102.207V20.7491H98.7983V26.8043C98.7983 27.4241 98.9493 27.9009 99.2512 28.2346C99.5532 28.5525 99.9902 28.7114 100.562 28.7114C101.23 28.7114 101.786 28.5366 102.231 28.187L103.066 30.3087ZM111.739 31.2384C110.674 31.2384 109.689 31.0318 108.783 30.6186C107.893 30.1895 107.162 29.5935 106.59 28.8306L108.354 26.7089C109.276 27.9804 110.38 28.6161 111.667 28.6161C113.4 28.6161 114.266 27.591 114.266 25.5408V16.911H108.33V14.3125H117.365V25.3739C117.365 27.3287 116.888 28.7988 115.935 29.7842C114.981 30.7537 113.582 31.2384 111.739 31.2384ZM130.223 31.2384C128.935 31.2384 127.688 31.0556 126.48 30.6901C125.288 30.3246 124.342 29.8398 123.643 29.2359L124.716 26.8281C125.399 27.3685 126.233 27.8135 127.219 28.1631C128.22 28.4969 129.221 28.6637 130.223 28.6637C131.462 28.6637 132.384 28.4651 132.988 28.0678C133.608 27.6704 133.918 27.146 133.918 26.4944C133.918 26.0176 133.743 25.6282 133.393 25.3262C133.059 25.0084 132.63 24.7621 132.106 24.5872C131.581 24.4124 130.866 24.2137 129.96 23.9912C128.689 23.6893 127.656 23.3873 126.861 23.0854C126.082 22.7834 125.407 22.3146 124.835 21.6788C124.279 21.0272 124 20.1531 124 19.0565C124 18.1347 124.247 17.3004 124.74 16.5534C125.248 15.7905 126.003 15.1866 127.004 14.7416C128.021 14.2966 129.261 14.0741 130.723 14.0741C131.74 14.0741 132.742 14.2012 133.727 14.4555C134.712 14.7098 135.563 15.0754 136.278 15.5521L135.3 17.9599C134.569 17.5308 133.806 17.205 133.012 16.9825C132.217 16.76 131.446 16.6487 130.699 16.6487C129.476 16.6487 128.562 16.8554 127.958 17.2686C127.37 17.6818 127.076 18.2301 127.076 18.9135C127.076 19.3903 127.243 19.7796 127.576 20.0816C127.926 20.3836 128.363 20.622 128.888 20.7968C129.412 20.9716 130.127 21.1703 131.033 21.3928C132.273 21.6788 133.29 21.9808 134.085 22.2987C134.879 22.6006 135.555 23.0695 136.111 23.7052C136.683 24.3409 136.969 25.1991 136.969 26.2798C136.969 27.2016 136.715 28.036 136.206 28.7829C135.714 29.5299 134.959 30.1259 133.941 30.5709C132.924 31.0159 131.685 31.2384 130.223 31.2384Z" fill="white"/>
<rect x="193" width="160" height="45" rx="3" fill="#042646"/>
<path d="M243.159 31L239.75 26.1129C239.607 26.1288 239.393 26.1368 239.107 26.1368H235.34V31H232.241V14.3125H239.107C240.553 14.3125 241.808 14.5509 242.873 15.0277C243.954 15.5045 244.78 16.1879 245.353 17.0779C245.925 17.9679 246.211 19.0247 246.211 20.2485C246.211 21.504 245.901 22.5847 245.281 23.4906C244.677 24.3965 243.803 25.072 242.659 25.517L246.497 31H243.159ZM243.088 20.2485C243.088 19.1837 242.738 18.3652 242.039 17.793C241.34 17.2209 240.314 16.9348 238.964 16.9348H235.34V23.586H238.964C240.314 23.586 241.34 23.2999 242.039 22.7278C242.738 22.1397 243.088 21.3133 243.088 20.2485ZM264.697 24.7064C264.697 24.913 264.681 25.2071 264.649 25.5885H254.66C254.835 26.5262 255.288 27.2731 256.019 27.8294C256.766 28.3697 257.688 28.6399 258.785 28.6399C260.183 28.6399 261.335 28.179 262.241 27.2572L263.839 29.0929C263.266 29.7762 262.543 30.2928 261.669 30.6424C260.795 30.9921 259.81 31.1669 258.713 31.1669C257.315 31.1669 256.083 30.8887 255.018 30.3325C253.953 29.7762 253.127 29.0054 252.539 28.0201C251.967 27.0188 251.681 25.8904 251.681 24.6349C251.681 23.3953 251.959 22.2828 252.515 21.2974C253.087 20.2962 253.874 19.5174 254.875 18.9612C255.876 18.4049 257.005 18.1268 258.26 18.1268C259.5 18.1268 260.604 18.4049 261.574 18.9612C262.559 19.5015 263.322 20.2723 263.862 21.2736C264.419 22.2589 264.697 23.4032 264.697 24.7064ZM258.26 20.5107C257.307 20.5107 256.496 20.7968 255.829 21.3689C255.177 21.9252 254.78 22.6721 254.637 23.6098H261.86C261.733 22.688 261.343 21.9411 260.692 21.3689C260.04 20.7968 259.23 20.5107 258.26 20.5107ZM275.411 18.1268C277.286 18.1268 278.716 18.5797 279.702 19.4856C280.703 20.3756 281.204 21.7265 281.204 23.5383V31H278.391V29.4504C278.025 30.0067 277.501 30.4358 276.817 30.7378C276.15 31.0238 275.339 31.1669 274.386 31.1669C273.432 31.1669 272.598 31.0079 271.882 30.6901C271.167 30.3563 270.611 29.9034 270.214 29.3312C269.832 28.7432 269.642 28.0837 269.642 27.3526C269.642 26.2083 270.063 25.2945 270.905 24.6111C271.763 23.9118 273.106 23.5621 274.934 23.5621H278.224V23.3714C278.224 22.4814 277.954 21.798 277.413 21.3212C276.889 20.8445 276.102 20.6061 275.053 20.6061C274.338 20.6061 273.631 20.7173 272.931 20.9398C272.248 21.1623 271.668 21.4722 271.191 21.8696L270.023 19.7002C270.69 19.1916 271.493 18.8022 272.431 18.5321C273.368 18.2619 274.362 18.1268 275.411 18.1268ZM275.005 28.9975C275.752 28.9975 276.412 28.8306 276.984 28.4969C277.572 28.1472 277.985 27.6546 278.224 27.0188V25.5408H275.148C273.432 25.5408 272.574 26.105 272.574 27.2334C272.574 27.7737 272.788 28.2029 273.217 28.5207C273.647 28.8386 274.243 28.9975 275.005 28.9975ZM294.322 31.1669C293.003 31.1669 291.819 30.8887 290.77 30.3325C289.722 29.7762 288.903 29.0054 288.315 28.0201C287.727 27.0188 287.433 25.8904 287.433 24.6349C287.433 23.3794 287.727 22.2589 288.315 21.2736C288.903 20.2882 289.714 19.5174 290.747 18.9612C291.796 18.4049 292.987 18.1268 294.322 18.1268C295.578 18.1268 296.675 18.3811 297.612 18.8896C298.566 19.3982 299.281 20.1293 299.758 21.0829L297.469 22.4179C297.104 21.8298 296.643 21.3928 296.087 21.1067C295.546 20.8047 294.95 20.6537 294.299 20.6537C293.186 20.6537 292.264 21.0193 291.533 21.7504C290.802 22.4655 290.437 23.4271 290.437 24.6349C290.437 25.8428 290.794 26.8122 291.509 27.5433C292.241 28.2585 293.17 28.6161 294.299 28.6161C294.95 28.6161 295.546 28.473 296.087 28.187C296.643 27.885 297.104 27.44 297.469 26.852L299.758 28.187C299.265 29.1405 298.542 29.8796 297.588 30.404C296.651 30.9126 295.562 31.1669 294.322 31.1669ZM313.487 30.3087C313.137 30.5947 312.708 30.8093 312.199 30.9523C311.707 31.0954 311.182 31.1669 310.626 31.1669C309.227 31.1669 308.147 30.8013 307.384 30.0703C306.621 29.3392 306.24 28.2744 306.24 26.8758V20.7491H304.142V18.3652H306.24V15.4568H309.219V18.3652H312.628V20.7491H309.219V26.8043C309.219 27.4241 309.37 27.9009 309.672 28.2346C309.974 28.5525 310.411 28.7114 310.984 28.7114C311.651 28.7114 312.207 28.5366 312.652 28.187L313.487 30.3087Z" fill="white"/>
<rect x="193" y="96" width="160" height="45" rx="3" fill="#042646"/>
<path d="M250.069 110.312V127H247.518L238.316 115.7V127H235.241V110.312H237.792L246.994 121.612V110.312H250.069ZM263.313 127.167C262.026 127.167 260.866 126.889 259.833 126.332C258.8 125.776 257.989 125.005 257.401 124.02C256.829 123.019 256.543 121.89 256.543 120.635C256.543 119.379 256.829 118.259 257.401 117.274C257.989 116.288 258.8 115.517 259.833 114.961C260.866 114.405 262.026 114.127 263.313 114.127C264.617 114.127 265.785 114.405 266.818 114.961C267.851 115.517 268.653 116.288 269.225 117.274C269.814 118.259 270.108 119.379 270.108 120.635C270.108 121.89 269.814 123.019 269.225 124.02C268.653 125.005 267.851 125.776 266.818 126.332C265.785 126.889 264.617 127.167 263.313 127.167ZM263.313 124.616C264.41 124.616 265.316 124.251 266.031 123.519C266.746 122.788 267.104 121.827 267.104 120.635C267.104 119.443 266.746 118.481 266.031 117.75C265.316 117.019 264.41 116.654 263.313 116.654C262.217 116.654 261.311 117.019 260.596 117.75C259.896 118.481 259.547 119.443 259.547 120.635C259.547 121.827 259.896 122.788 260.596 123.519C261.311 124.251 262.217 124.616 263.313 124.616ZM288.763 109.311V127H285.902V125.355C285.409 125.959 284.797 126.412 284.066 126.714C283.351 127.016 282.556 127.167 281.682 127.167C280.458 127.167 279.354 126.897 278.369 126.356C277.399 125.816 276.636 125.053 276.08 124.068C275.524 123.067 275.246 121.922 275.246 120.635C275.246 119.348 275.524 118.211 276.08 117.226C276.636 116.241 277.399 115.478 278.369 114.937C279.354 114.397 280.458 114.127 281.682 114.127C282.525 114.127 283.295 114.27 283.995 114.556C284.694 114.842 285.29 115.271 285.783 115.843V109.311H288.763ZM282.04 124.616C282.755 124.616 283.399 124.457 283.971 124.139C284.543 123.806 284.996 123.337 285.33 122.733C285.663 122.129 285.83 121.43 285.83 120.635C285.83 119.84 285.663 119.141 285.33 118.537C284.996 117.933 284.543 117.472 283.971 117.154C283.399 116.821 282.755 116.654 282.04 116.654C281.325 116.654 280.681 116.821 280.109 117.154C279.537 117.472 279.084 117.933 278.75 118.537C278.416 119.141 278.249 119.84 278.249 120.635C278.249 121.43 278.416 122.129 278.75 122.733C279.084 123.337 279.537 123.806 280.109 124.139C280.681 124.457 281.325 124.616 282.04 124.616ZM307.966 120.706C307.966 120.913 307.95 121.207 307.918 121.588H297.929C298.104 122.526 298.557 123.273 299.288 123.829C300.035 124.37 300.957 124.64 302.053 124.64C303.452 124.64 304.604 124.179 305.51 123.257L307.107 125.093C306.535 125.776 305.812 126.293 304.938 126.642C304.064 126.992 303.079 127.167 301.982 127.167C300.583 127.167 299.352 126.889 298.287 126.332C297.222 125.776 296.396 125.005 295.808 124.02C295.235 123.019 294.949 121.89 294.949 120.635C294.949 119.395 295.227 118.283 295.784 117.297C296.356 116.296 297.143 115.517 298.144 114.961C299.145 114.405 300.273 114.127 301.529 114.127C302.769 114.127 303.873 114.405 304.843 114.961C305.828 115.502 306.591 116.272 307.131 117.274C307.687 118.259 307.966 119.403 307.966 120.706ZM301.529 116.511C300.575 116.511 299.765 116.797 299.097 117.369C298.446 117.925 298.048 118.672 297.905 119.61H305.129C305.002 118.688 304.612 117.941 303.961 117.369C303.309 116.797 302.498 116.511 301.529 116.511Z" fill="white"/>
<rect x="356" y="96" width="160" height="45" rx="3" fill="#042646"/>
<path d="M389.757 124.402V127H377.241V110.312H389.423V112.911H380.34V117.25H388.398V119.801H380.34V124.402H389.757ZM404.135 127L400.869 122.59L397.58 127H394.29L399.248 120.54L394.504 114.27H397.818L400.941 118.442L404.064 114.27H407.282L402.514 120.492L407.497 127H404.135ZM420.09 114.127C421.329 114.127 422.434 114.397 423.403 114.937C424.389 115.478 425.159 116.241 425.716 117.226C426.272 118.211 426.55 119.348 426.55 120.635C426.55 121.922 426.272 123.067 425.716 124.068C425.159 125.053 424.389 125.816 423.403 126.356C422.434 126.897 421.329 127.167 420.09 127.167C418.373 127.167 417.014 126.595 416.013 125.45V131.625H413.033V114.27H415.87V115.939C416.363 115.335 416.967 114.882 417.682 114.58C418.413 114.278 419.215 114.127 420.09 114.127ZM419.756 124.616C420.852 124.616 421.75 124.251 422.45 123.519C423.165 122.788 423.522 121.827 423.522 120.635C423.522 119.443 423.165 118.481 422.45 117.75C421.75 117.019 420.852 116.654 419.756 116.654C419.041 116.654 418.397 116.821 417.825 117.154C417.253 117.472 416.8 117.933 416.466 118.537C416.132 119.141 415.965 119.84 415.965 120.635C415.965 121.43 416.132 122.129 416.466 122.733C416.8 123.337 417.253 123.806 417.825 124.139C418.397 124.457 419.041 124.616 419.756 124.616ZM435.55 116.129C436.409 114.794 437.919 114.127 440.08 114.127V116.964C439.826 116.916 439.595 116.892 439.389 116.892C438.228 116.892 437.323 117.234 436.671 117.917C436.019 118.585 435.694 119.554 435.694 120.826V127H432.714V114.27H435.55V116.129ZM457.796 120.706C457.796 120.913 457.78 121.207 457.749 121.588H447.76C447.935 122.526 448.388 123.273 449.119 123.829C449.866 124.37 450.788 124.64 451.884 124.64C453.283 124.64 454.435 124.179 455.341 123.257L456.938 125.093C456.366 125.776 455.643 126.293 454.769 126.642C453.895 126.992 452.909 127.167 451.813 127.167C450.414 127.167 449.182 126.889 448.118 126.332C447.053 125.776 446.226 125.005 445.638 124.02C445.066 123.019 444.78 121.89 444.78 120.635C444.78 119.395 445.058 118.283 445.614 117.297C446.187 116.296 446.973 115.517 447.974 114.961C448.976 114.405 450.104 114.127 451.36 114.127C452.599 114.127 453.704 114.405 454.673 114.961C455.659 115.502 456.422 116.272 456.962 117.274C457.518 118.259 457.796 119.403 457.796 120.706ZM451.36 116.511C450.406 116.511 449.596 116.797 448.928 117.369C448.276 117.925 447.879 118.672 447.736 119.61H454.959C454.832 118.688 454.443 117.941 453.791 117.369C453.14 116.797 452.329 116.511 451.36 116.511ZM467.93 127.167C466.897 127.167 465.887 127.032 464.902 126.762C463.917 126.491 463.13 126.15 462.542 125.737L463.686 123.472C464.258 123.853 464.942 124.163 465.736 124.402C466.547 124.624 467.342 124.735 468.12 124.735C469.9 124.735 470.79 124.266 470.79 123.329C470.79 122.884 470.56 122.574 470.099 122.399C469.654 122.224 468.931 122.057 467.93 121.898C466.881 121.739 466.023 121.557 465.355 121.35C464.703 121.143 464.131 120.786 463.639 120.277C463.162 119.753 462.923 119.03 462.923 118.108C462.923 116.9 463.424 115.939 464.425 115.223C465.442 114.492 466.809 114.127 468.526 114.127C469.4 114.127 470.274 114.23 471.148 114.437C472.022 114.627 472.737 114.89 473.293 115.223L472.149 117.488C471.068 116.852 469.853 116.535 468.502 116.535C467.628 116.535 466.96 116.67 466.499 116.94C466.054 117.194 465.832 117.536 465.832 117.965C465.832 118.442 466.07 118.783 466.547 118.99C467.04 119.181 467.795 119.363 468.812 119.538C469.829 119.697 470.663 119.88 471.315 120.087C471.966 120.293 472.523 120.643 472.984 121.136C473.46 121.628 473.699 122.327 473.699 123.233C473.699 124.425 473.182 125.379 472.149 126.094C471.116 126.809 469.71 127.167 467.93 127.167ZM483.536 127.167C482.503 127.167 481.494 127.032 480.508 126.762C479.523 126.491 478.736 126.15 478.148 125.737L479.293 123.472C479.865 123.853 480.548 124.163 481.343 124.402C482.153 124.624 482.948 124.735 483.727 124.735C485.507 124.735 486.397 124.266 486.397 123.329C486.397 122.884 486.166 122.574 485.705 122.399C485.26 122.224 484.537 122.057 483.536 121.898C482.487 121.739 481.629 121.557 480.961 121.35C480.31 121.143 479.738 120.786 479.245 120.277C478.768 119.753 478.53 119.03 478.53 118.108C478.53 116.9 479.03 115.939 480.032 115.223C481.049 114.492 482.416 114.127 484.132 114.127C485.006 114.127 485.88 114.23 486.754 114.437C487.628 114.627 488.344 114.89 488.9 115.223L487.756 117.488C486.675 116.852 485.459 116.535 484.108 116.535C483.234 116.535 482.567 116.67 482.106 116.94C481.661 117.194 481.438 117.536 481.438 117.965C481.438 118.442 481.677 118.783 482.153 118.99C482.646 119.181 483.401 119.363 484.418 119.538C485.435 119.697 486.27 119.88 486.921 120.087C487.573 120.293 488.129 120.643 488.59 121.136C489.067 121.628 489.305 122.327 489.305 123.233C489.305 124.425 488.789 125.379 487.756 126.094C486.723 126.809 485.316 127.167 483.536 127.167Z" fill="white"/>
<rect y="144" width="353" height="45" rx="3" fill="#042646"/>
<path d="M33.8883 174.167C32.8553 174.167 31.8461 174.032 30.8607 173.762C29.8754 173.491 29.0887 173.15 28.5006 172.737L29.6449 170.472C30.2171 170.853 30.9004 171.163 31.6951 171.402C32.5056 171.624 33.3003 171.735 34.079 171.735C35.859 171.735 36.749 171.266 36.749 170.329C36.749 169.884 36.5186 169.574 36.0577 169.399C35.6127 169.224 34.8896 169.057 33.8883 168.898C32.8394 168.739 31.9812 168.557 31.3137 168.35C30.6621 168.143 30.0899 167.786 29.5972 167.277C29.1204 166.753 28.8821 166.03 28.8821 165.108C28.8821 163.9 29.3827 162.939 30.3839 162.223C31.4011 161.492 32.7679 161.127 34.4843 161.127C35.3584 161.127 36.2325 161.23 37.1066 161.437C37.9807 161.627 38.6959 161.89 39.2521 162.223L38.1079 164.488C37.0271 163.852 35.8113 163.535 34.4604 163.535C33.5863 163.535 32.9188 163.67 32.4579 163.94C32.0129 164.194 31.7904 164.536 31.7904 164.965C31.7904 165.442 32.0288 165.783 32.5056 165.99C32.9983 166.181 33.7532 166.363 34.7704 166.538C35.7875 166.697 36.6219 166.88 37.2735 167.087C37.9251 167.293 38.4813 167.643 38.9422 168.136C39.419 168.628 39.6574 169.327 39.6574 170.233C39.6574 171.425 39.1409 172.379 38.1079 173.094C37.0748 173.809 35.6683 174.167 33.8883 174.167ZM53.2136 173.309C52.8639 173.595 52.4348 173.809 51.9263 173.952C51.4336 174.095 50.9091 174.167 50.3529 174.167C48.9543 174.167 47.8736 173.801 47.1107 173.07C46.3479 172.339 45.9664 171.274 45.9664 169.876V163.749H43.8686V161.365H45.9664V158.457H48.9464V161.365H52.3554V163.749H48.9464V169.804C48.9464 170.424 49.0973 170.901 49.3993 171.235C49.7013 171.552 50.1383 171.711 50.7105 171.711C51.378 171.711 51.9342 171.537 52.3792 171.187L53.2136 173.309ZM70.6893 161.27L64.7295 175.025C64.1732 176.408 63.4978 177.377 62.7031 177.933C61.9085 178.506 60.947 178.792 59.8186 178.792C59.1828 178.792 58.5551 178.688 57.9353 178.482C57.3154 178.275 56.8069 177.989 56.4095 177.624L57.6015 175.43C57.8876 175.701 58.2213 175.915 58.6028 176.074C59.0001 176.233 59.3974 176.312 59.7947 176.312C60.3192 176.312 60.7483 176.177 61.082 175.907C61.4317 175.637 61.7495 175.184 62.0356 174.548L62.2502 174.048L56.6956 161.27H59.7947L63.7997 170.686L67.8286 161.27H70.6893ZM75.8892 156.311H78.8691V174H75.8892V156.311ZM98.0851 167.706C98.0851 167.913 98.0692 168.207 98.0374 168.588H88.0487C88.2236 169.526 88.6765 170.273 89.4076 170.829C90.1545 171.37 91.0763 171.64 92.1729 171.64C93.5715 171.64 94.7237 171.179 95.6296 170.257L97.2269 172.093C96.6547 172.776 95.9316 173.293 95.0575 173.642C94.1834 173.992 93.198 174.167 92.1014 174.167C90.7029 174.167 89.4712 173.889 88.4063 173.332C87.3415 172.776 86.5151 172.005 85.927 171.02C85.3549 170.019 85.0688 168.89 85.0688 167.635C85.0688 166.395 85.347 165.283 85.9032 164.297C86.4754 163.296 87.262 162.517 88.2633 161.961C89.2645 161.405 90.3929 161.127 91.6485 161.127C92.8881 161.127 93.9927 161.405 94.9621 161.961C95.9475 162.502 96.7104 163.272 97.2507 164.274C97.807 165.259 98.0851 166.403 98.0851 167.706ZM91.6485 163.511C90.6949 163.511 89.8844 163.797 89.2169 164.369C88.5653 164.925 88.1679 165.672 88.0249 166.61H95.2482C95.1211 165.688 94.7317 164.941 94.0801 164.369C93.4285 163.797 92.6179 163.511 91.6485 163.511ZM116.753 156.311V174H113.892V172.355C113.4 172.959 112.788 173.412 112.057 173.714C111.341 174.016 110.547 174.167 109.673 174.167C108.449 174.167 107.344 173.897 106.359 173.356C105.39 172.816 104.627 172.053 104.07 171.068C103.514 170.067 103.236 168.922 103.236 167.635C103.236 166.348 103.514 165.211 104.07 164.226C104.627 163.241 105.39 162.478 106.359 161.937C107.344 161.397 108.449 161.127 109.673 161.127C110.515 161.127 111.286 161.27 111.985 161.556C112.684 161.842 113.28 162.271 113.773 162.843V156.311H116.753ZM110.03 171.616C110.745 171.616 111.389 171.457 111.961 171.139C112.533 170.806 112.986 170.337 113.32 169.733C113.654 169.129 113.821 168.43 113.821 167.635C113.821 166.84 113.654 166.141 113.32 165.537C112.986 164.933 112.533 164.472 111.961 164.154C111.389 163.821 110.745 163.654 110.03 163.654C109.315 163.654 108.671 163.821 108.099 164.154C107.527 164.472 107.074 164.933 106.74 165.537C106.407 166.141 106.24 166.84 106.24 167.635C106.24 168.43 106.407 169.129 106.74 169.733C107.074 170.337 107.527 170.806 108.099 171.139C108.671 171.457 109.315 171.616 110.03 171.616ZM123.345 166.133H129.901V168.612H123.345V166.133ZM142.572 174.167C141.253 174.167 140.069 173.889 139.02 173.332C137.971 172.776 137.153 172.005 136.565 171.02C135.977 170.019 135.683 168.89 135.683 167.635C135.683 166.379 135.977 165.259 136.565 164.274C137.153 163.288 137.963 162.517 138.996 161.961C140.045 161.405 141.237 161.127 142.572 161.127C143.828 161.127 144.924 161.381 145.862 161.89C146.816 162.398 147.531 163.129 148.008 164.083L145.719 165.418C145.353 164.83 144.893 164.393 144.336 164.107C143.796 163.805 143.2 163.654 142.548 163.654C141.436 163.654 140.514 164.019 139.783 164.75C139.052 165.466 138.686 166.427 138.686 167.635C138.686 168.843 139.044 169.812 139.759 170.543C140.49 171.258 141.42 171.616 142.548 171.616C143.2 171.616 143.796 171.473 144.336 171.187C144.893 170.885 145.353 170.44 145.719 169.852L148.008 171.187C147.515 172.141 146.792 172.88 145.838 173.404C144.9 173.913 143.812 174.167 142.572 174.167ZM159.456 174.167C158.169 174.167 157.009 173.889 155.976 173.332C154.943 172.776 154.132 172.005 153.544 171.02C152.972 170.019 152.686 168.89 152.686 167.635C152.686 166.379 152.972 165.259 153.544 164.274C154.132 163.288 154.943 162.517 155.976 161.961C157.009 161.405 158.169 161.127 159.456 161.127C160.759 161.127 161.928 161.405 162.961 161.961C163.994 162.517 164.796 163.288 165.368 164.274C165.956 165.259 166.25 166.379 166.25 167.635C166.25 168.89 165.956 170.019 165.368 171.02C164.796 172.005 163.994 172.776 162.961 173.332C161.928 173.889 160.759 174.167 159.456 174.167ZM159.456 171.616C160.553 171.616 161.459 171.251 162.174 170.519C162.889 169.788 163.247 168.827 163.247 167.635C163.247 166.443 162.889 165.481 162.174 164.75C161.459 164.019 160.553 163.654 159.456 163.654C158.36 163.654 157.454 164.019 156.738 164.75C156.039 165.481 155.69 166.443 155.69 167.635C155.69 168.827 156.039 169.788 156.738 170.519C157.454 171.251 158.36 171.616 159.456 171.616ZM188.505 161.127C190.11 161.127 191.382 161.596 192.319 162.533C193.257 163.455 193.726 164.846 193.726 166.705V174H190.746V167.087C190.746 165.974 190.5 165.14 190.007 164.583C189.514 164.011 188.807 163.725 187.885 163.725C186.884 163.725 186.081 164.059 185.478 164.727C184.874 165.378 184.572 166.316 184.572 167.54V174H181.592V167.087C181.592 165.974 181.345 165.14 180.853 164.583C180.36 164.011 179.653 163.725 178.731 163.725C177.714 163.725 176.903 164.051 176.299 164.703C175.711 165.354 175.417 166.3 175.417 167.54V174H172.437V161.27H175.274V162.891C175.751 162.319 176.347 161.882 177.062 161.58C177.777 161.278 178.572 161.127 179.446 161.127C180.4 161.127 181.242 161.31 181.973 161.675C182.72 162.025 183.308 162.549 183.737 163.248C184.262 162.581 184.937 162.064 185.764 161.699C186.59 161.317 187.504 161.127 188.505 161.127ZM207.928 161.127C209.167 161.127 210.272 161.397 211.241 161.937C212.227 162.478 212.998 163.241 213.554 164.226C214.11 165.211 214.388 166.348 214.388 167.635C214.388 168.922 214.11 170.067 213.554 171.068C212.998 172.053 212.227 172.816 211.241 173.356C210.272 173.897 209.167 174.167 207.928 174.167C206.211 174.167 204.853 173.595 203.851 172.45V178.625H200.871V161.27H203.708V162.939C204.201 162.335 204.805 161.882 205.52 161.58C206.251 161.278 207.054 161.127 207.928 161.127ZM207.594 171.616C208.691 171.616 209.589 171.251 210.288 170.519C211.003 169.788 211.361 168.827 211.361 167.635C211.361 166.443 211.003 165.481 210.288 164.75C209.589 164.019 208.691 163.654 207.594 163.654C206.879 163.654 206.235 163.821 205.663 164.154C205.091 164.472 204.638 164.933 204.304 165.537C203.97 166.141 203.804 166.84 203.804 167.635C203.804 168.43 203.97 169.129 204.304 169.733C204.638 170.337 205.091 170.806 205.663 171.139C206.235 171.457 206.879 171.616 207.594 171.616ZM226.273 174.167C224.986 174.167 223.826 173.889 222.793 173.332C221.76 172.776 220.949 172.005 220.361 171.02C219.789 170.019 219.503 168.89 219.503 167.635C219.503 166.379 219.789 165.259 220.361 164.274C220.949 163.288 221.76 162.517 222.793 161.961C223.826 161.405 224.986 161.127 226.273 161.127C227.576 161.127 228.745 161.405 229.778 161.961C230.811 162.517 231.613 163.288 232.185 164.274C232.773 165.259 233.067 166.379 233.067 167.635C233.067 168.89 232.773 170.019 232.185 171.02C231.613 172.005 230.811 172.776 229.778 173.332C228.745 173.889 227.576 174.167 226.273 174.167ZM226.273 171.616C227.37 171.616 228.276 171.251 228.991 170.519C229.706 169.788 230.064 168.827 230.064 167.635C230.064 166.443 229.706 165.481 228.991 164.75C228.276 164.019 227.37 163.654 226.273 163.654C225.177 163.654 224.271 164.019 223.556 164.75C222.856 165.481 222.507 166.443 222.507 167.635C222.507 168.827 222.856 169.788 223.556 170.519C224.271 171.251 225.177 171.616 226.273 171.616ZM246.478 161.127C248.083 161.127 249.37 161.596 250.34 162.533C251.309 163.471 251.794 164.862 251.794 166.705V174H248.814V167.087C248.814 165.974 248.552 165.14 248.027 164.583C247.503 164.011 246.756 163.725 245.786 163.725C244.69 163.725 243.824 164.059 243.188 164.727C242.552 165.378 242.234 166.324 242.234 167.563V174H239.254V161.27H242.091V162.915C242.584 162.327 243.204 161.882 243.951 161.58C244.698 161.278 245.54 161.127 246.478 161.127ZM270.995 167.706C270.995 167.913 270.979 168.207 270.948 168.588H260.959C261.134 169.526 261.587 170.273 262.318 170.829C263.065 171.37 263.987 171.64 265.083 171.64C266.482 171.64 267.634 171.179 268.54 170.257L270.137 172.093C269.565 172.776 268.842 173.293 267.968 173.642C267.094 173.992 266.108 174.167 265.012 174.167C263.613 174.167 262.381 173.889 261.317 173.332C260.252 172.776 259.425 172.005 258.837 171.02C258.265 170.019 257.979 168.89 257.979 167.635C257.979 166.395 258.257 165.283 258.813 164.297C259.386 163.296 260.172 162.517 261.174 161.961C262.175 161.405 263.303 161.127 264.559 161.127C265.798 161.127 266.903 161.405 267.872 161.961C268.858 162.502 269.621 163.272 270.161 164.274C270.717 165.259 270.995 166.403 270.995 167.706ZM264.559 163.511C263.605 163.511 262.795 163.797 262.127 164.369C261.476 164.925 261.078 165.672 260.935 166.61H268.158C268.031 165.688 267.642 164.941 266.99 164.369C266.339 163.797 265.528 163.511 264.559 163.511ZM284.419 161.127C286.024 161.127 287.311 161.596 288.281 162.533C289.25 163.471 289.735 164.862 289.735 166.705V174H286.755V167.087C286.755 165.974 286.493 165.14 285.968 164.583C285.444 164.011 284.697 163.725 283.727 163.725C282.631 163.725 281.764 164.059 281.129 164.727C280.493 165.378 280.175 166.324 280.175 167.563V174H277.195V161.27H280.032V162.915C280.525 162.327 281.145 161.882 281.892 161.58C282.639 161.278 283.481 161.127 284.419 161.127ZM304.505 173.309C304.155 173.595 303.726 173.809 303.218 173.952C302.725 174.095 302.2 174.167 301.644 174.167C300.246 174.167 299.165 173.801 298.402 173.07C297.639 172.339 297.258 171.274 297.258 169.876V163.749H295.16V161.365H297.258V158.457H300.238V161.365H303.647V163.749H300.238V169.804C300.238 170.424 300.389 170.901 300.691 171.235C300.993 171.552 301.43 171.711 302.002 171.711C302.669 171.711 303.225 171.537 303.67 171.187L304.505 173.309ZM314.227 174.167C313.194 174.167 312.185 174.032 311.2 173.762C310.214 173.491 309.428 173.15 308.839 172.737L309.984 170.472C310.556 170.853 311.239 171.163 312.034 171.402C312.844 171.624 313.639 171.735 314.418 171.735C316.198 171.735 317.088 171.266 317.088 170.329C317.088 169.884 316.857 169.574 316.397 169.399C315.952 169.224 315.228 169.057 314.227 168.898C313.178 168.739 312.32 168.557 311.653 168.35C311.001 168.143 310.429 167.786 309.936 167.277C309.459 166.753 309.221 166.03 309.221 165.108C309.221 163.9 309.722 162.939 310.723 162.223C311.74 161.492 313.107 161.127 314.823 161.127C315.697 161.127 316.571 161.23 317.445 161.437C318.32 161.627 319.035 161.89 319.591 162.223L318.447 164.488C317.366 163.852 316.15 163.535 314.799 163.535C313.925 163.535 313.258 163.67 312.797 163.94C312.352 164.194 312.129 164.536 312.129 164.965C312.129 165.442 312.368 165.783 312.844 165.99C313.337 166.181 314.092 166.363 315.109 166.538C316.126 166.697 316.961 166.88 317.612 167.087C318.264 167.293 318.82 167.643 319.281 168.136C319.758 168.628 319.996 169.327 319.996 170.233C319.996 171.425 319.48 172.379 318.447 173.094C317.414 173.809 316.007 174.167 314.227 174.167Z" fill="white"/>
<rect y="48" width="389" height="45" rx="3" fill="#042646"/>
<path d="M71.0689 61.3125V78H67.9698V70.8482H59.34V78H56.2409V61.3125H59.34V68.2021H67.9698V61.3125H71.0689ZM82.2632 63.9348H76.7324V61.3125H90.893V63.9348H85.3623V78H82.2632V63.9348ZM111.885 78L111.861 66.9386L106.378 76.0929H104.995L99.5124 67.0816V78H96.5563V61.3125H99.1071L105.734 72.3739L112.243 61.3125H114.793L114.817 78H111.885ZM122.662 61.3125H125.761V75.3777H134.486V78H122.662V61.3125ZM150.197 60.3112H152.938V82.6248H150.197V60.3112ZM173.347 82.6248C172.409 81.1786 171.686 79.5019 171.178 77.5947C170.685 75.6876 170.439 73.6454 170.439 71.468C170.439 69.2907 170.685 67.2485 171.178 65.3413C171.686 63.4183 172.409 61.7416 173.347 60.3112H176.184C175.214 62.0277 174.499 63.7997 174.038 65.6274C173.593 67.4392 173.371 69.3861 173.371 71.468C173.371 73.55 173.593 75.5048 174.038 77.3325C174.499 79.1443 175.214 80.9084 176.184 82.6248H173.347ZM187.452 78.2384C186.165 78.2384 184.917 78.0556 183.709 77.6901C182.517 77.3246 181.572 76.8398 180.873 76.2359L181.945 73.8281C182.629 74.3685 183.463 74.8135 184.448 75.1631C185.45 75.4969 186.451 75.6637 187.452 75.6637C188.692 75.6637 189.614 75.4651 190.218 75.0678C190.837 74.6704 191.147 74.146 191.147 73.4944C191.147 73.0176 190.972 72.6282 190.623 72.3262C190.289 72.0084 189.86 71.7621 189.335 71.5872C188.811 71.4124 188.096 71.2137 187.19 70.9912C185.918 70.6893 184.885 70.3873 184.091 70.0854C183.312 69.7834 182.637 69.3146 182.064 68.6788C181.508 68.0272 181.23 67.1531 181.23 66.0565C181.23 65.1347 181.476 64.3004 181.969 63.5534C182.478 62.7905 183.233 62.1866 184.234 61.7416C185.251 61.2966 186.491 61.0741 187.953 61.0741C188.97 61.0741 189.971 61.2012 190.957 61.4555C191.942 61.7098 192.792 62.0754 193.507 62.5521L192.53 64.9599C191.799 64.5308 191.036 64.205 190.241 63.9825C189.447 63.76 188.676 63.6487 187.929 63.6487C186.705 63.6487 185.791 63.8554 185.187 64.2686C184.599 64.6818 184.305 65.2301 184.305 65.9135C184.305 66.3903 184.472 66.7796 184.806 67.0816C185.156 67.3836 185.593 67.622 186.117 67.7968C186.642 67.9716 187.357 68.1703 188.263 68.3928C189.502 68.6788 190.519 68.9808 191.314 69.2987C192.109 69.6006 192.784 70.0695 193.34 70.7052C193.913 71.3409 194.199 72.1991 194.199 73.2798C194.199 74.2016 193.944 75.036 193.436 75.7829C192.943 76.5299 192.188 77.1259 191.171 77.5709C190.154 78.0159 188.914 78.2384 187.452 78.2384ZM198.893 82.6248C199.862 80.9084 200.577 79.1363 201.038 77.3087C201.499 75.481 201.73 73.5341 201.73 71.468C201.73 69.402 201.499 67.4551 201.038 65.6274C200.577 63.7997 199.862 62.0277 198.893 60.3112H201.73C202.667 61.7257 203.383 63.3945 203.875 65.3175C204.384 67.2246 204.638 69.2748 204.638 71.468C204.638 73.6612 204.384 75.7114 203.875 77.6186C203.383 79.5098 202.667 81.1786 201.73 82.6248H198.893ZM219.959 78.2384C218.274 78.2384 216.748 77.8729 215.381 77.1418C214.03 76.3948 212.966 75.3697 212.187 74.0665C211.424 72.7633 211.043 71.2932 211.043 69.6562C211.043 68.0193 211.432 66.5492 212.211 65.246C212.989 63.9428 214.054 62.9256 215.405 62.1946C216.772 61.4476 218.298 61.0741 219.982 61.0741C221.349 61.0741 222.597 61.3125 223.725 61.7893C224.854 62.2661 225.807 62.9574 226.586 63.8633L224.583 65.7466C223.375 64.4434 221.889 63.7918 220.125 63.7918C218.981 63.7918 217.956 64.0461 217.05 64.5546C216.144 65.0473 215.437 65.7387 214.928 66.6287C214.42 67.5187 214.166 68.5279 214.166 69.6562C214.166 70.7846 214.42 71.7938 214.928 72.6838C215.437 73.5738 216.144 74.2731 217.05 74.7817C217.956 75.2744 218.981 75.5207 220.125 75.5207C221.889 75.5207 223.375 74.8612 224.583 73.5421L226.586 75.4492C225.807 76.3551 224.846 77.0464 223.701 77.5232C222.573 78 221.325 78.2384 219.959 78.2384ZM237.973 78.2384C236.686 78.2384 235.438 78.0556 234.23 77.6901C233.038 77.3246 232.092 76.8398 231.393 76.2359L232.466 73.8281C233.149 74.3685 233.984 74.8135 234.969 75.1631C235.97 75.4969 236.972 75.6637 237.973 75.6637C239.212 75.6637 240.134 75.4651 240.738 75.0678C241.358 74.6704 241.668 74.146 241.668 73.4944C241.668 73.0176 241.493 72.6282 241.143 72.3262C240.81 72.0084 240.381 71.7621 239.856 71.5872C239.332 71.4124 238.616 71.2137 237.711 70.9912C236.439 70.6893 235.406 70.3873 234.611 70.0854C233.833 69.7834 233.157 69.3146 232.585 68.6788C232.029 68.0272 231.751 67.1531 231.751 66.0565C231.751 65.1347 231.997 64.3004 232.49 63.5534C232.998 62.7905 233.753 62.1866 234.755 61.7416C235.772 61.2966 237.011 61.0741 238.473 61.0741C239.491 61.0741 240.492 61.2012 241.477 61.4555C242.463 61.7098 243.313 62.0754 244.028 62.5521L243.051 64.9599C242.32 64.5308 241.557 64.205 240.762 63.9825C239.967 63.76 239.197 63.6487 238.45 63.6487C237.226 63.6487 236.312 63.8554 235.708 64.2686C235.12 64.6818 234.826 65.2301 234.826 65.9135C234.826 66.3903 234.993 66.7796 235.327 67.0816C235.676 67.3836 236.113 67.622 236.638 67.7968C237.162 67.9716 237.877 68.1703 238.783 68.3928C240.023 68.6788 241.04 68.9808 241.835 69.2987C242.629 69.6006 243.305 70.0695 243.861 70.7052C244.433 71.3409 244.719 72.1991 244.719 73.2798C244.719 74.2016 244.465 75.036 243.956 75.7829C243.464 76.5299 242.709 77.1259 241.692 77.5709C240.675 78.0159 239.435 78.2384 237.973 78.2384ZM256.303 78.2384C255.016 78.2384 253.768 78.0556 252.56 77.6901C251.368 77.3246 250.423 76.8398 249.723 76.2359L250.796 73.8281C251.48 74.3685 252.314 74.8135 253.299 75.1631C254.3 75.4969 255.302 75.6637 256.303 75.6637C257.543 75.6637 258.464 75.4651 259.068 75.0678C259.688 74.6704 259.998 74.146 259.998 73.4944C259.998 73.0176 259.823 72.6282 259.474 72.3262C259.14 72.0084 258.711 71.7621 258.186 71.5872C257.662 71.4124 256.947 71.2137 256.041 70.9912C254.769 70.6893 253.736 70.3873 252.942 70.0854C252.163 69.7834 251.487 69.3146 250.915 68.6788C250.359 68.0272 250.081 67.1531 250.081 66.0565C250.081 65.1347 250.327 64.3004 250.82 63.5534C251.329 62.7905 252.083 62.1866 253.085 61.7416C254.102 61.2966 255.341 61.0741 256.804 61.0741C257.821 61.0741 258.822 61.2012 259.807 61.4555C260.793 61.7098 261.643 62.0754 262.358 62.5521L261.381 64.9599C260.65 64.5308 259.887 64.205 259.092 63.9825C258.298 63.76 257.527 63.6487 256.78 63.6487C255.556 63.6487 254.642 63.8554 254.038 64.2686C253.45 64.6818 253.156 65.2301 253.156 65.9135C253.156 66.3903 253.323 66.7796 253.657 67.0816C254.006 67.3836 254.444 67.622 254.968 67.7968C255.492 67.9716 256.208 68.1703 257.114 68.3928C258.353 68.6788 259.37 68.9808 260.165 69.2987C260.96 69.6006 261.635 70.0695 262.191 70.7052C262.763 71.3409 263.05 72.1991 263.05 73.2798C263.05 74.2016 262.795 75.036 262.287 75.7829C261.794 76.5299 261.039 77.1259 260.022 77.5709C259.005 78.0159 257.765 78.2384 256.303 78.2384ZM279.386 60.3112H282.127V82.6248H279.386V60.3112ZM302.465 78.2384C301.4 78.2384 300.415 78.0318 299.509 77.6186C298.619 77.1895 297.888 76.5935 297.316 75.8306L299.08 73.7089C300.001 74.9804 301.106 75.6161 302.393 75.6161C304.126 75.6161 304.992 74.591 304.992 72.5408V63.911H299.056V61.3125H308.091V72.3739C308.091 74.3287 307.614 75.7988 306.661 76.7842C305.707 77.7537 304.308 78.2384 302.465 78.2384ZM320.948 78.2384C319.661 78.2384 318.414 78.0556 317.206 77.6901C316.014 77.3246 315.068 76.8398 314.369 76.2359L315.442 73.8281C316.125 74.3685 316.959 74.8135 317.945 75.1631C318.946 75.4969 319.947 75.6637 320.948 75.6637C322.188 75.6637 323.11 75.4651 323.714 75.0678C324.334 74.6704 324.644 74.146 324.644 73.4944C324.644 73.0176 324.469 72.6282 324.119 72.3262C323.785 72.0084 323.356 71.7621 322.832 71.5872C322.307 71.4124 321.592 71.2137 320.686 70.9912C319.415 70.6893 318.382 70.3873 317.587 70.0854C316.808 69.7834 316.133 69.3146 315.561 68.6788C315.005 68.0272 314.726 67.1531 314.726 66.0565C314.726 65.1347 314.973 64.3004 315.465 63.5534C315.974 62.7905 316.729 62.1866 317.73 61.7416C318.747 61.2966 319.987 61.0741 321.449 61.0741C322.466 61.0741 323.467 61.2012 324.453 61.4555C325.438 61.7098 326.288 62.0754 327.004 62.5521L326.026 64.9599C325.295 64.5308 324.532 64.205 323.738 63.9825C322.943 63.76 322.172 63.6487 321.425 63.6487C320.201 63.6487 319.288 63.8554 318.684 64.2686C318.096 64.6818 317.802 65.2301 317.802 65.9135C317.802 66.3903 317.969 66.7796 318.302 67.0816C318.652 67.3836 319.089 67.622 319.613 67.7968C320.138 67.9716 320.853 68.1703 321.759 68.3928C322.999 68.6788 324.016 68.9808 324.81 69.2987C325.605 69.6006 326.28 70.0695 326.837 70.7052C327.409 71.3409 327.695 72.1991 327.695 73.2798C327.695 74.2016 327.441 75.036 326.932 75.7829C326.439 76.5299 325.685 77.1259 324.667 77.5709C323.65 78.0159 322.411 78.2384 320.948 78.2384Z" fill="white"/>
<rect y="192" width="265" height="45" rx="3" fill="#042646"/>
<path d="M42.6261 207.935H37.0954V205.312H51.2559V207.935H45.7252V222H42.6261V207.935ZM60.8212 209.127C62.6966 209.127 64.1269 209.58 65.1123 210.486C66.1135 211.376 66.6142 212.727 66.6142 214.538V222H63.8011V220.45C63.4356 221.007 62.9111 221.436 62.2277 221.738C61.5602 222.024 60.7497 222.167 59.7961 222.167C58.8426 222.167 58.0082 222.008 57.293 221.69C56.5778 221.356 56.0216 220.903 55.6243 220.331C55.2428 219.743 55.0521 219.084 55.0521 218.353C55.0521 217.208 55.4733 216.294 56.3156 215.611C57.1738 214.912 58.5168 214.562 60.3444 214.562H63.6343V214.371C63.6343 213.481 63.3641 212.798 62.8237 212.321C62.2993 211.844 61.5126 211.606 60.4636 211.606C59.7485 211.606 59.0412 211.717 58.3419 211.94C57.6585 212.162 57.0785 212.472 56.6017 212.87L55.4335 210.7C56.101 210.192 56.9036 209.802 57.8413 209.532C58.779 209.262 59.7723 209.127 60.8212 209.127ZM60.416 219.997C61.1629 219.997 61.8225 219.831 62.3946 219.497C62.9827 219.147 63.3959 218.655 63.6343 218.019V216.541H60.559C58.8426 216.541 57.9843 217.105 57.9843 218.233C57.9843 218.774 58.1989 219.203 58.628 219.521C59.0571 219.839 59.6531 219.997 60.416 219.997ZM73.776 209.27H76.7559V222H73.776V209.27ZM75.2779 207.172C74.7375 207.172 74.2846 207.005 73.919 206.671C73.5535 206.322 73.3707 205.893 73.3707 205.384C73.3707 204.875 73.5535 204.454 73.919 204.121C74.2846 203.771 74.7375 203.596 75.2779 203.596C75.8182 203.596 76.2712 203.763 76.6367 204.097C77.0023 204.415 77.185 204.82 77.185 205.312C77.185 205.837 77.0023 206.282 76.6367 206.647C76.2871 206.997 75.8341 207.172 75.2779 207.172ZM84.0046 204.311H86.9845V222H84.0046V204.311ZM114.091 209.27L109.395 222H106.534L103.244 213.227L99.9069 222H97.0461L92.3736 209.27H95.1867L98.548 218.662L102.052 209.27H104.556L107.988 218.71L111.445 209.27H114.091ZM119.478 209.27H122.458V222H119.478V209.27ZM120.979 207.172C120.439 207.172 119.986 207.005 119.621 206.671C119.255 206.322 119.072 205.893 119.072 205.384C119.072 204.875 119.255 204.454 119.621 204.121C119.986 203.771 120.439 203.596 120.979 203.596C121.52 203.596 121.973 203.763 122.338 204.097C122.704 204.415 122.887 204.82 122.887 205.312C122.887 205.837 122.704 206.282 122.338 206.647C121.989 206.997 121.536 207.172 120.979 207.172ZM136.929 209.127C138.535 209.127 139.822 209.596 140.791 210.533C141.761 211.471 142.246 212.862 142.246 214.705V222H139.266V215.087C139.266 213.974 139.003 213.14 138.479 212.583C137.955 212.011 137.208 211.725 136.238 211.725C135.142 211.725 134.275 212.059 133.64 212.727C133.004 213.378 132.686 214.324 132.686 215.563V222H129.706V209.27H132.543V210.915C133.036 210.327 133.656 209.882 134.402 209.58C135.149 209.278 135.992 209.127 136.929 209.127ZM161.948 204.311V222H159.087V220.355C158.594 220.959 157.982 221.412 157.251 221.714C156.536 222.016 155.742 222.167 154.867 222.167C153.644 222.167 152.539 221.897 151.554 221.356C150.584 220.816 149.821 220.053 149.265 219.068C148.709 218.067 148.431 216.922 148.431 215.635C148.431 214.348 148.709 213.211 149.265 212.226C149.821 211.241 150.584 210.478 151.554 209.937C152.539 209.397 153.644 209.127 154.867 209.127C155.71 209.127 156.481 209.27 157.18 209.556C157.879 209.842 158.475 210.271 158.968 210.843V204.311H161.948ZM155.225 219.616C155.94 219.616 156.584 219.457 157.156 219.139C157.728 218.806 158.181 218.337 158.515 217.733C158.849 217.129 159.015 216.43 159.015 215.635C159.015 214.84 158.849 214.141 158.515 213.537C158.181 212.933 157.728 212.472 157.156 212.154C156.584 211.821 155.94 211.654 155.225 211.654C154.51 211.654 153.866 211.821 153.294 212.154C152.722 212.472 152.269 212.933 151.935 213.537C151.601 214.141 151.435 214.84 151.435 215.635C151.435 216.43 151.601 217.129 151.935 217.733C152.269 218.337 152.722 218.806 153.294 219.139C153.866 219.457 154.51 219.616 155.225 219.616ZM177.193 222.238C175.509 222.238 173.983 221.873 172.616 221.142C171.265 220.395 170.201 219.37 169.422 218.067C168.659 216.763 168.278 215.293 168.278 213.656C168.278 212.019 168.667 210.549 169.446 209.246C170.224 207.943 171.289 206.926 172.64 206.195C174.007 205.448 175.533 205.074 177.217 205.074C178.584 205.074 179.832 205.312 180.96 205.789C182.088 206.266 183.042 206.957 183.821 207.863L181.818 209.747C180.61 208.443 179.124 207.792 177.36 207.792C176.216 207.792 175.191 208.046 174.285 208.555C173.379 209.047 172.672 209.739 172.163 210.629C171.655 211.519 171.401 212.528 171.401 213.656C171.401 214.785 171.655 215.794 172.163 216.684C172.672 217.574 173.379 218.273 174.285 218.782C175.191 219.274 176.216 219.521 177.36 219.521C179.124 219.521 180.61 218.861 181.818 217.542L183.821 219.449C183.042 220.355 182.081 221.046 180.936 221.523C179.808 222 178.56 222.238 177.193 222.238ZM195.208 222.238C193.92 222.238 192.673 222.056 191.465 221.69C190.273 221.325 189.327 220.84 188.628 220.236L189.701 217.828C190.384 218.368 191.219 218.813 192.204 219.163C193.205 219.497 194.207 219.664 195.208 219.664C196.447 219.664 197.369 219.465 197.973 219.068C198.593 218.67 198.903 218.146 198.903 217.494C198.903 217.018 198.728 216.628 198.378 216.326C198.045 216.008 197.616 215.762 197.091 215.587C196.567 215.412 195.851 215.214 194.946 214.991C193.674 214.689 192.641 214.387 191.846 214.085C191.068 213.783 190.392 213.315 189.82 212.679C189.264 212.027 188.986 211.153 188.986 210.057C188.986 209.135 189.232 208.3 189.725 207.553C190.233 206.791 190.988 206.187 191.989 205.742C193.007 205.297 194.246 205.074 195.708 205.074C196.726 205.074 197.727 205.201 198.712 205.456C199.697 205.71 200.548 206.075 201.263 206.552L200.286 208.96C199.554 208.531 198.792 208.205 197.997 207.982C197.202 207.76 196.432 207.649 195.685 207.649C194.461 207.649 193.547 207.855 192.943 208.269C192.355 208.682 192.061 209.23 192.061 209.913C192.061 210.39 192.228 210.78 192.562 211.082C192.911 211.384 193.348 211.622 193.873 211.797C194.397 211.972 195.112 212.17 196.018 212.393C197.258 212.679 198.275 212.981 199.07 213.299C199.864 213.601 200.54 214.069 201.096 214.705C201.668 215.341 201.954 216.199 201.954 217.28C201.954 218.202 201.7 219.036 201.191 219.783C200.699 220.53 199.944 221.126 198.927 221.571C197.91 222.016 196.67 222.238 195.208 222.238ZM213.538 222.238C212.251 222.238 211.003 222.056 209.795 221.69C208.603 221.325 207.658 220.84 206.958 220.236L208.031 217.828C208.714 218.368 209.549 218.813 210.534 219.163C211.535 219.497 212.537 219.664 213.538 219.664C214.778 219.664 215.699 219.465 216.303 219.068C216.923 218.67 217.233 218.146 217.233 217.494C217.233 217.018 217.058 216.628 216.709 216.326C216.375 216.008 215.946 215.762 215.421 215.587C214.897 215.412 214.182 215.214 213.276 214.991C212.004 214.689 210.971 214.387 210.177 214.085C209.398 213.783 208.722 213.315 208.15 212.679C207.594 212.027 207.316 211.153 207.316 210.057C207.316 209.135 207.562 208.3 208.055 207.553C208.563 206.791 209.318 206.187 210.32 205.742C211.337 205.297 212.576 205.074 214.039 205.074C215.056 205.074 216.057 205.201 217.042 205.456C218.028 205.71 218.878 206.075 219.593 206.552L218.616 208.96C217.885 208.531 217.122 208.205 216.327 207.982C215.532 207.76 214.762 207.649 214.015 207.649C212.791 207.649 211.877 207.855 211.273 208.269C210.685 208.682 210.391 209.23 210.391 209.913C210.391 210.39 210.558 210.78 210.892 211.082C211.241 211.384 211.678 211.622 212.203 211.797C212.727 211.972 213.443 212.17 214.348 212.393C215.588 212.679 216.605 212.981 217.4 213.299C218.195 213.601 218.87 214.069 219.426 214.705C219.998 215.341 220.284 216.199 220.284 217.28C220.284 218.202 220.03 219.036 219.522 219.783C219.029 220.53 218.274 221.126 217.257 221.571C216.24 222.016 215 222.238 213.538 222.238Z" fill="white"/>
<rect x="268" y="192" width="237" height="45" rx="3" fill="#042646"/>
<path d="M311.414 222.238C310.127 222.238 308.879 222.056 307.671 221.69C306.479 221.325 305.534 220.84 304.834 220.236L305.907 217.828C306.591 218.368 307.425 218.813 308.41 219.163C309.412 219.497 310.413 219.664 311.414 219.664C312.654 219.664 313.575 219.465 314.179 219.068C314.799 218.67 315.109 218.146 315.109 217.494C315.109 217.018 314.934 216.628 314.585 216.326C314.251 216.008 313.822 215.762 313.297 215.587C312.773 215.412 312.058 215.214 311.152 214.991C309.88 214.689 308.847 214.387 308.053 214.085C307.274 213.783 306.598 213.315 306.026 212.679C305.47 212.027 305.192 211.153 305.192 210.057C305.192 209.135 305.438 208.3 305.931 207.553C306.44 206.791 307.194 206.187 308.196 205.742C309.213 205.297 310.453 205.074 311.915 205.074C312.932 205.074 313.933 205.201 314.918 205.456C315.904 205.71 316.754 206.075 317.469 206.552L316.492 208.96C315.761 208.531 314.998 208.205 314.203 207.982C313.409 207.76 312.638 207.649 311.891 207.649C310.667 207.649 309.753 207.855 309.149 208.269C308.561 208.682 308.267 209.23 308.267 209.913C308.267 210.39 308.434 210.78 308.768 211.082C309.118 211.384 309.555 211.622 310.079 211.797C310.603 211.972 311.319 212.17 312.225 212.393C313.464 212.679 314.481 212.981 315.276 213.299C316.071 213.601 316.746 214.069 317.302 214.705C317.874 215.341 318.161 216.199 318.161 217.28C318.161 218.202 317.906 219.036 317.398 219.783C316.905 220.53 316.15 221.126 315.133 221.571C314.116 222.016 312.876 222.238 311.414 222.238ZM342.188 223.669C341.632 224.32 340.98 224.813 340.233 225.147C339.502 225.481 338.7 225.647 337.826 225.647C336.681 225.647 335.633 225.385 334.679 224.861C333.725 224.352 332.637 223.462 331.413 222.191C329.871 222.064 328.489 221.619 327.265 220.856C326.041 220.077 325.088 219.068 324.404 217.828C323.721 216.573 323.379 215.182 323.379 213.656C323.379 212.035 323.768 210.573 324.547 209.27C325.326 207.951 326.399 206.926 327.766 206.195C329.132 205.448 330.666 205.074 332.367 205.074C334.067 205.074 335.601 205.448 336.968 206.195C338.334 206.926 339.407 207.943 340.186 209.246C340.965 210.549 341.354 212.019 341.354 213.656C341.354 214.975 341.092 216.199 340.567 217.327C340.043 218.44 339.312 219.394 338.374 220.188C337.436 220.967 336.348 221.531 335.108 221.881C335.569 222.373 336.022 222.731 336.467 222.954C336.912 223.176 337.389 223.287 337.897 223.287C338.994 223.287 339.947 222.842 340.758 221.952L342.188 223.669ZM326.502 213.656C326.502 214.769 326.756 215.778 327.265 216.684C327.773 217.574 328.473 218.273 329.363 218.782C330.253 219.274 331.254 219.521 332.367 219.521C333.479 219.521 334.48 219.274 335.37 218.782C336.26 218.273 336.96 217.574 337.468 216.684C337.977 215.778 338.231 214.769 338.231 213.656C338.231 212.544 337.977 211.542 337.468 210.652C336.96 209.747 336.26 209.047 335.37 208.555C334.48 208.046 333.479 207.792 332.367 207.792C331.254 207.792 330.253 208.046 329.363 208.555C328.473 209.047 327.773 209.747 327.265 210.652C326.756 211.542 326.502 212.544 326.502 213.656ZM347.976 205.312H351.076V219.378H359.801V222H347.976V205.312ZM370.961 201.927H373.631L365.764 224.384H363.094L370.961 201.927ZM383.612 209.127C385.217 209.127 386.505 209.596 387.474 210.533C388.443 211.471 388.928 212.862 388.928 214.705V222H385.948V215.087C385.948 213.974 385.686 213.14 385.162 212.583C384.637 212.011 383.89 211.725 382.921 211.725C381.824 211.725 380.958 212.059 380.322 212.727C379.687 213.378 379.369 214.324 379.369 215.563V222H376.389V209.27H379.226V210.915C379.718 210.327 380.338 209.882 381.085 209.58C381.832 209.278 382.674 209.127 383.612 209.127ZM401.884 222.167C400.596 222.167 399.436 221.889 398.403 221.332C397.37 220.776 396.56 220.005 395.972 219.02C395.399 218.019 395.113 216.89 395.113 215.635C395.113 214.379 395.399 213.259 395.972 212.274C396.56 211.288 397.37 210.517 398.403 209.961C399.436 209.405 400.596 209.127 401.884 209.127C403.187 209.127 404.355 209.405 405.388 209.961C406.421 210.517 407.224 211.288 407.796 212.274C408.384 213.259 408.678 214.379 408.678 215.635C408.678 216.89 408.384 218.019 407.796 219.02C407.224 220.005 406.421 220.776 405.388 221.332C404.355 221.889 403.187 222.167 401.884 222.167ZM401.884 219.616C402.98 219.616 403.886 219.251 404.601 218.519C405.317 217.788 405.674 216.827 405.674 215.635C405.674 214.443 405.317 213.481 404.601 212.75C403.886 212.019 402.98 211.654 401.884 211.654C400.787 211.654 399.881 212.019 399.166 212.75C398.467 213.481 398.117 214.443 398.117 215.635C398.117 216.827 398.467 217.788 399.166 218.519C399.881 219.251 400.787 219.616 401.884 219.616ZM420.324 222.238C419.037 222.238 417.789 222.056 416.581 221.69C415.389 221.325 414.444 220.84 413.745 220.236L414.817 217.828C415.501 218.368 416.335 218.813 417.32 219.163C418.322 219.497 419.323 219.664 420.324 219.664C421.564 219.664 422.486 219.465 423.09 219.068C423.709 218.67 424.019 218.146 424.019 217.494C424.019 217.018 423.844 216.628 423.495 216.326C423.161 216.008 422.732 215.762 422.207 215.587C421.683 215.412 420.968 215.214 420.062 214.991C418.791 214.689 417.757 214.387 416.963 214.085C416.184 213.783 415.509 213.315 414.937 212.679C414.38 212.027 414.102 211.153 414.102 210.057C414.102 209.135 414.348 208.3 414.841 207.553C415.35 206.791 416.105 206.187 417.106 205.742C418.123 205.297 419.363 205.074 420.825 205.074C421.842 205.074 422.843 205.201 423.829 205.456C424.814 205.71 425.664 206.075 426.379 206.552L425.402 208.96C424.671 208.531 423.908 208.205 423.113 207.982C422.319 207.76 421.548 207.649 420.801 207.649C419.577 207.649 418.663 207.855 418.059 208.269C417.471 208.682 417.177 209.23 417.177 209.913C417.177 210.39 417.344 210.78 417.678 211.082C418.028 211.384 418.465 211.622 418.989 211.797C419.514 211.972 420.229 212.17 421.135 212.393C422.374 212.679 423.392 212.981 424.186 213.299C424.981 213.601 425.656 214.069 426.212 214.705C426.785 215.341 427.071 216.199 427.071 217.28C427.071 218.202 426.816 219.036 426.308 219.783C425.815 220.53 425.06 221.126 424.043 221.571C423.026 222.016 421.786 222.238 420.324 222.238ZM451.098 223.669C450.542 224.32 449.891 224.813 449.144 225.147C448.413 225.481 447.61 225.647 446.736 225.647C445.592 225.647 444.543 225.385 443.589 224.861C442.636 224.352 441.547 223.462 440.323 222.191C438.782 222.064 437.399 221.619 436.175 220.856C434.951 220.077 433.998 219.068 433.314 217.828C432.631 216.573 432.289 215.182 432.289 213.656C432.289 212.035 432.679 210.573 433.457 209.27C434.236 207.951 435.309 206.926 436.676 206.195C438.042 205.448 439.576 205.074 441.277 205.074C442.977 205.074 444.511 205.448 445.878 206.195C447.244 206.926 448.317 207.943 449.096 209.246C449.875 210.549 450.264 212.019 450.264 213.656C450.264 214.975 450.002 216.199 449.477 217.327C448.953 218.44 448.222 219.394 447.284 220.188C446.347 220.967 445.258 221.531 444.018 221.881C444.479 222.373 444.932 222.731 445.377 222.954C445.822 223.176 446.299 223.287 446.807 223.287C447.904 223.287 448.858 222.842 449.668 221.952L451.098 223.669ZM435.412 213.656C435.412 214.769 435.667 215.778 436.175 216.684C436.684 217.574 437.383 218.273 438.273 218.782C439.163 219.274 440.164 219.521 441.277 219.521C442.389 219.521 443.39 219.274 444.28 218.782C445.17 218.273 445.87 217.574 446.378 216.684C446.887 215.778 447.141 214.769 447.141 213.656C447.141 212.544 446.887 211.542 446.378 210.652C445.87 209.747 445.17 209.047 444.28 208.555C443.39 208.046 442.389 207.792 441.277 207.792C440.164 207.792 439.163 208.046 438.273 208.555C437.383 209.047 436.684 209.747 436.175 210.652C435.667 211.542 435.412 212.544 435.412 213.656ZM456.887 205.312H459.986V219.378H468.711V222H456.887V205.312Z" fill="white"/>
<rect x="356" width="196" height="45" rx="3" fill="#042646"/>
<path d="M379.626 15.9348H374.095V13.3125H388.256V15.9348H382.725V30H379.626V15.9348ZM404.761 17.2698L398.801 31.0251C398.245 32.4078 397.57 33.3772 396.775 33.9335C395.98 34.5056 395.019 34.7917 393.891 34.7917C393.255 34.7917 392.627 34.6884 392.007 34.4818C391.387 34.2752 390.879 33.9891 390.482 33.6236L391.673 31.4304C391.96 31.7005 392.293 31.9151 392.675 32.074C393.072 32.2329 393.469 32.3124 393.867 32.3124C394.391 32.3124 394.82 32.1773 395.154 31.9071C395.504 31.637 395.822 31.184 396.108 30.5483L396.322 30.0477L390.768 17.2698H393.867L397.872 26.6863L401.901 17.2698H404.761ZM417.018 17.1268C418.257 17.1268 419.362 17.397 420.331 17.9373C421.317 18.4777 422.087 19.2405 422.644 20.2259C423.2 21.2112 423.478 22.3476 423.478 23.6349C423.478 24.9222 423.2 26.0665 422.644 27.0678C422.087 28.0531 421.317 28.816 420.331 29.3563C419.362 29.8967 418.257 30.1669 417.018 30.1669C415.301 30.1669 413.942 29.5947 412.941 28.4504V34.6248H409.961V17.2698H412.798V18.9386C413.291 18.3346 413.895 17.8817 414.61 17.5797C415.341 17.2778 416.144 17.1268 417.018 17.1268ZM416.684 27.6161C417.78 27.6161 418.678 27.2505 419.378 26.5195C420.093 25.7884 420.45 24.8269 420.45 23.6349C420.45 22.4429 420.093 21.4814 419.378 20.7504C418.678 20.0193 417.78 19.6537 416.684 19.6537C415.969 19.6537 415.325 19.8206 414.753 20.1544C414.181 20.4722 413.728 20.9331 413.394 21.5371C413.06 22.141 412.893 22.8403 412.893 23.6349C412.893 24.4296 413.06 25.1288 413.394 25.7328C413.728 26.3367 414.181 26.8055 414.753 27.1393C415.325 27.4571 415.969 27.6161 416.684 27.6161ZM441.609 23.7064C441.609 23.913 441.593 24.2071 441.561 24.5885H431.573C431.747 25.5262 432.2 26.2731 432.931 26.8294C433.678 27.3697 434.6 27.6399 435.697 27.6399C437.095 27.6399 438.248 27.179 439.154 26.2572L440.751 28.0929C440.179 28.7762 439.455 29.2928 438.581 29.6424C437.707 29.9921 436.722 30.1669 435.625 30.1669C434.227 30.1669 432.995 29.8887 431.93 29.3325C430.865 28.7762 430.039 28.0054 429.451 27.0201C428.879 26.0188 428.593 24.8904 428.593 23.6349C428.593 22.3953 428.871 21.2828 429.427 20.2974C429.999 19.2962 430.786 18.5174 431.787 17.9612C432.788 17.4049 433.917 17.1268 435.172 17.1268C436.412 17.1268 437.517 17.4049 438.486 17.9612C439.471 18.5015 440.234 19.2723 440.775 20.2736C441.331 21.2589 441.609 22.4032 441.609 23.7064ZM435.172 19.5107C434.219 19.5107 433.408 19.7968 432.741 20.3689C432.089 20.9252 431.692 21.6721 431.549 22.6098H438.772C438.645 21.688 438.256 20.9411 437.604 20.3689C436.952 19.7968 436.142 19.5107 435.172 19.5107ZM451.742 30.1669C450.709 30.1669 449.7 30.0318 448.715 29.7616C447.729 29.4914 446.943 29.1497 446.355 28.7365L447.499 26.4718C448.071 26.8532 448.754 27.1631 449.549 27.4015C450.36 27.624 451.154 27.7353 451.933 27.7353C453.713 27.7353 454.603 27.2664 454.603 26.3287C454.603 25.8837 454.373 25.5738 453.912 25.399C453.467 25.2242 452.744 25.0573 451.742 24.8984C450.693 24.7395 449.835 24.5567 449.168 24.3501C448.516 24.1435 447.944 23.7859 447.451 23.2773C446.974 22.7529 446.736 22.0297 446.736 21.1079C446.736 19.9001 447.237 18.9386 448.238 18.2234C449.255 17.4923 450.622 17.1268 452.338 17.1268C453.212 17.1268 454.087 17.2301 454.961 17.4367C455.835 17.6274 456.55 17.8896 457.106 18.2234L455.962 20.4881C454.881 19.8524 453.665 19.5346 452.314 19.5346C451.44 19.5346 450.773 19.6696 450.312 19.9398C449.867 20.1941 449.644 20.5358 449.644 20.9649C449.644 21.4417 449.883 21.7834 450.36 21.99C450.852 22.1807 451.607 22.3635 452.624 22.5383C453.642 22.6972 454.476 22.88 455.128 23.0866C455.779 23.2932 456.335 23.6429 456.796 24.1355C457.273 24.6282 457.511 25.3275 457.511 26.2334C457.511 27.4254 456.995 28.3789 455.962 29.0941C454.929 29.8093 453.522 30.1669 451.742 30.1669ZM469.256 30.1669C467.937 30.1669 466.753 29.8887 465.704 29.3325C464.655 28.7762 463.836 28.0054 463.248 27.0201C462.66 26.0188 462.366 24.8904 462.366 23.6349C462.366 22.3794 462.66 21.2589 463.248 20.2736C463.836 19.2882 464.647 18.5174 465.68 17.9612C466.729 17.4049 467.921 17.1268 469.256 17.1268C470.511 17.1268 471.608 17.3811 472.546 17.8896C473.499 18.3982 474.214 19.1293 474.691 20.0829L472.403 21.4179C472.037 20.8298 471.576 20.3928 471.02 20.1067C470.48 19.8047 469.884 19.6537 469.232 19.6537C468.119 19.6537 467.198 20.0193 466.467 20.7504C465.736 21.4655 465.37 22.4271 465.37 23.6349C465.37 24.8428 465.728 25.8122 466.443 26.5433C467.174 27.2585 468.104 27.6161 469.232 27.6161C469.884 27.6161 470.48 27.473 471.02 27.187C471.576 26.885 472.037 26.44 472.403 25.852L474.691 27.187C474.199 28.1405 473.475 28.8796 472.522 29.404C471.584 29.9126 470.495 30.1669 469.256 30.1669ZM483.442 19.1293C484.3 17.7943 485.81 17.1268 487.971 17.1268V19.9637C487.717 19.916 487.486 19.8921 487.28 19.8921C486.119 19.8921 485.214 20.2338 484.562 20.9172C483.91 21.5847 483.585 22.5542 483.585 23.8256V30H480.605V17.2698H483.442V19.1293ZM493.836 17.2698H496.816V30H493.836V17.2698ZM495.338 15.172C494.798 15.172 494.345 15.0051 493.979 14.6713C493.614 14.3217 493.431 13.8926 493.431 13.384C493.431 12.8754 493.614 12.4543 493.979 12.1205C494.345 11.7709 494.798 11.5961 495.338 11.5961C495.879 11.5961 496.332 11.7629 496.697 12.0967C497.063 12.4146 497.245 12.8198 497.245 13.3125C497.245 13.837 497.063 14.282 496.697 14.6475C496.347 14.9971 495.895 15.172 495.338 15.172ZM511.121 17.1268C512.361 17.1268 513.466 17.397 514.435 17.9373C515.42 18.4777 516.191 19.2405 516.747 20.2259C517.304 21.2112 517.582 22.3476 517.582 23.6349C517.582 24.9222 517.304 26.0665 516.747 27.0678C516.191 28.0531 515.42 28.816 514.435 29.3563C513.466 29.8967 512.361 30.1669 511.121 30.1669C509.405 30.1669 508.046 29.5947 507.045 28.4504V34.6248H504.065V17.2698H506.902V18.9386C507.394 18.3346 507.998 17.8817 508.714 17.5797C509.445 17.2778 510.247 17.1268 511.121 17.1268ZM510.788 27.6161C511.884 27.6161 512.782 27.2505 513.481 26.5195C514.197 25.7884 514.554 24.8269 514.554 23.6349C514.554 22.4429 514.197 21.4814 513.481 20.7504C512.782 20.0193 511.884 19.6537 510.788 19.6537C510.072 19.6537 509.429 19.8206 508.857 20.1544C508.284 20.4722 507.832 20.9331 507.498 21.5371C507.164 22.141 506.997 22.8403 506.997 23.6349C506.997 24.4296 507.164 25.1288 507.498 25.7328C507.832 26.3367 508.284 26.8055 508.857 27.1393C509.429 27.4571 510.072 27.6161 510.788 27.6161ZM531.398 29.3087C531.048 29.5947 530.619 29.8093 530.11 29.9523C529.618 30.0954 529.093 30.1669 528.537 30.1669C527.139 30.1669 526.058 29.8013 525.295 29.0703C524.532 28.3392 524.151 27.2744 524.151 25.8758V19.7491H522.053V17.3652H524.151V14.4568H527.131V17.3652H530.54V19.7491H527.131V25.8043C527.131 26.4241 527.282 26.9009 527.584 27.2346C527.885 27.5525 528.323 27.7114 528.895 27.7114C529.562 27.7114 530.118 27.5366 530.563 27.187L531.398 29.3087Z" fill="white"/>
<rect x="356" y="144" width="160" height="45" rx="3" fill="#042646"/>
<path d="M429.965 174.238C428.28 174.238 426.754 173.873 425.388 173.142C424.037 172.395 422.972 171.37 422.193 170.067C421.43 168.763 421.049 167.293 421.049 165.656C421.049 164.019 421.438 162.549 422.217 161.246C422.996 159.943 424.061 158.926 425.412 158.195C426.778 157.448 428.304 157.074 429.989 157.074C431.355 157.074 432.603 157.312 433.731 157.789C434.86 158.266 435.813 158.957 436.592 159.863L434.59 161.747C433.382 160.443 431.896 159.792 430.132 159.792C428.987 159.792 427.962 160.046 427.056 160.555C426.151 161.047 425.443 161.739 424.935 162.629C424.426 163.519 424.172 164.528 424.172 165.656C424.172 166.785 424.426 167.794 424.935 168.684C425.443 169.574 426.151 170.273 427.056 170.782C427.962 171.274 428.987 171.521 430.132 171.521C431.896 171.521 433.382 170.861 434.59 169.542L436.592 171.449C435.813 172.355 434.852 173.046 433.708 173.523C432.579 174 431.332 174.238 429.965 174.238ZM442.899 157.312H445.998V174H442.899V157.312Z" fill="white"/>
<rect x="392" y="48" width="159" height="45" rx="3" fill="#042646"/>
<path d="M444.839 78.2384C443.775 78.2384 442.789 78.0318 441.883 77.6186C440.993 77.1895 440.262 76.5935 439.69 75.8306L441.454 73.7089C442.376 74.9804 443.481 75.6161 444.768 75.6161C446.5 75.6161 447.366 74.591 447.366 72.5408V63.911H441.43V61.3125H450.465V72.3739C450.465 74.3287 449.989 75.7988 449.035 76.7842C448.082 77.7537 446.683 78.2384 444.839 78.2384ZM469.831 71.7064C469.831 71.913 469.815 72.2071 469.783 72.5885H459.795C459.97 73.5262 460.423 74.2731 461.154 74.8294C461.901 75.3697 462.822 75.6399 463.919 75.6399C465.318 75.6399 466.47 75.179 467.376 74.2572L468.973 76.0929C468.401 76.7762 467.678 77.2928 466.804 77.6424C465.929 77.9921 464.944 78.1669 463.847 78.1669C462.449 78.1669 461.217 77.8887 460.152 77.3325C459.088 76.7762 458.261 76.0054 457.673 75.0201C457.101 74.0188 456.815 72.8904 456.815 71.6349C456.815 70.3953 457.093 69.2828 457.649 68.2974C458.221 67.2962 459.008 66.5174 460.009 65.9612C461.011 65.4049 462.139 65.1268 463.395 65.1268C464.634 65.1268 465.739 65.4049 466.708 65.9612C467.694 66.5015 468.456 67.2723 468.997 68.2736C469.553 69.2589 469.831 70.4032 469.831 71.7064ZM463.395 67.5107C462.441 67.5107 461.63 67.7968 460.963 68.3689C460.311 68.9252 459.914 69.6721 459.771 70.6098H466.994C466.867 69.688 466.478 68.9411 465.826 68.3689C465.175 67.7968 464.364 67.5107 463.395 67.5107ZM479.965 78.1669C478.931 78.1669 477.922 78.0318 476.937 77.7616C475.952 77.4914 475.165 77.1497 474.577 76.7365L475.721 74.4718C476.293 74.8532 476.977 75.1631 477.771 75.4015C478.582 75.624 479.376 75.7353 480.155 75.7353C481.935 75.7353 482.825 75.2664 482.825 74.3287C482.825 73.8837 482.595 73.5738 482.134 73.399C481.689 73.2242 480.966 73.0573 479.965 72.8984C478.916 72.7395 478.057 72.5567 477.39 72.3501C476.738 72.1435 476.166 71.7859 475.673 71.2773C475.197 70.7529 474.958 70.0297 474.958 69.1079C474.958 67.9001 475.459 66.9386 476.46 66.2234C477.477 65.4923 478.844 65.1268 480.561 65.1268C481.435 65.1268 482.309 65.2301 483.183 65.4367C484.057 65.6274 484.772 65.8896 485.328 66.2234L484.184 68.4881C483.103 67.8524 481.888 67.5346 480.537 67.5346C479.663 67.5346 478.995 67.6696 478.534 67.9398C478.089 68.1941 477.867 68.5358 477.867 68.9649C477.867 69.4417 478.105 69.7834 478.582 69.99C479.075 70.1807 479.829 70.3635 480.847 70.5383C481.864 70.6972 482.698 70.88 483.35 71.0866C484.001 71.2932 484.558 71.6429 485.018 72.1355C485.495 72.6282 485.734 73.3275 485.734 74.2334C485.734 75.4254 485.217 76.3789 484.184 77.0941C483.151 77.8093 481.745 78.1669 479.965 78.1669ZM499.29 77.3087C498.94 77.5947 498.511 77.8093 498.002 77.9523C497.51 78.0954 496.985 78.1669 496.429 78.1669C495.031 78.1669 493.95 77.8013 493.187 77.0703C492.424 76.3392 492.043 75.2744 492.043 73.8758V67.7491H489.945V65.3652H492.043V62.4568H495.023V65.3652H498.432V67.7491H495.023V73.8043C495.023 74.4241 495.174 74.9009 495.476 75.2346C495.777 75.5525 496.215 75.7114 496.787 75.7114C497.454 75.7114 498.01 75.5366 498.455 75.187L499.29 77.3087Z" fill="white"/>
<rect y="96" width="190" height="45" rx="3" fill="#042646"/>
<path d="M43.9648 126.238C42.2802 126.238 40.7545 125.873 39.3877 125.142C38.0368 124.395 36.972 123.37 36.1932 122.067C35.4304 120.763 35.0489 119.293 35.0489 117.656C35.0489 116.019 35.4383 114.549 36.2171 113.246C36.9958 111.943 38.0606 110.926 39.4115 110.195C40.7783 109.448 42.304 109.074 43.9887 109.074C45.3554 109.074 46.603 109.312 47.7314 109.789C48.8598 110.266 49.8134 110.957 50.5921 111.863L48.5896 113.747C47.3818 112.443 45.8958 111.792 44.1317 111.792C42.9874 111.792 41.9623 112.046 41.0564 112.555C40.1505 113.047 39.4433 113.739 38.9347 114.629C38.4262 115.519 38.1719 116.528 38.1719 117.656C38.1719 118.785 38.4262 119.794 38.9347 120.684C39.4433 121.574 40.1505 122.273 41.0564 122.782C41.9623 123.274 42.9874 123.521 44.1317 123.521C45.8958 123.521 47.3818 122.861 48.5896 121.542L50.5921 123.449C49.8134 124.355 48.8519 125.046 47.7076 125.523C46.5792 126 45.3316 126.238 43.9648 126.238ZM68.5327 113.27L62.5729 127.025C62.0166 128.408 61.3412 129.377 60.5465 129.933C59.7519 130.506 58.7904 130.792 57.662 130.792C57.0263 130.792 56.3985 130.688 55.7787 130.482C55.1589 130.275 54.6503 129.989 54.253 129.624L55.4449 127.43C55.731 127.701 56.0648 127.915 56.4462 128.074C56.8435 128.233 57.2408 128.312 57.6381 128.312C58.1626 128.312 58.5917 128.177 58.9255 127.907C59.2751 127.637 59.593 127.184 59.879 126.548L60.0936 126.048L54.539 113.27H57.6381L61.6431 122.686L65.672 113.27H68.5327ZM80.7891 113.127C82.0287 113.127 83.1333 113.397 84.1027 113.937C85.0881 114.478 85.8589 115.241 86.4151 116.226C86.9714 117.211 87.2495 118.348 87.2495 119.635C87.2495 120.922 86.9714 122.067 86.4151 123.068C85.8589 124.053 85.0881 124.816 84.1027 125.356C83.1333 125.897 82.0287 126.167 80.7891 126.167C79.0726 126.167 77.7138 125.595 76.7126 124.45V130.625H73.7326V113.27H76.5695V114.939C77.0622 114.335 77.6661 113.882 78.3813 113.58C79.1124 113.278 79.915 113.127 80.7891 113.127ZM80.4553 123.616C81.5519 123.616 82.4499 123.251 83.1492 122.519C83.8643 121.788 84.2219 120.827 84.2219 119.635C84.2219 118.443 83.8643 117.481 83.1492 116.75C82.4499 116.019 81.5519 115.654 80.4553 115.654C79.7401 115.654 79.0965 115.821 78.5243 116.154C77.9522 116.472 77.4993 116.933 77.1655 117.537C76.8318 118.141 76.6649 118.84 76.6649 119.635C76.6649 120.43 76.8318 121.129 77.1655 121.733C77.4993 122.337 77.9522 122.806 78.5243 123.139C79.0965 123.457 79.7401 123.616 80.4553 123.616ZM96.25 115.129C97.1082 113.794 98.618 113.127 100.779 113.127V115.964C100.525 115.916 100.295 115.892 100.088 115.892C98.9279 115.892 98.022 116.234 97.3704 116.917C96.7188 117.585 96.393 118.554 96.393 119.826V126H93.4131V113.27H96.25V115.129ZM118.496 119.706C118.496 119.913 118.48 120.207 118.448 120.588H108.459C108.634 121.526 109.087 122.273 109.818 122.829C110.565 123.37 111.487 123.64 112.584 123.64C113.982 123.64 115.134 123.179 116.04 122.257L117.638 124.093C117.065 124.776 116.342 125.293 115.468 125.642C114.594 125.992 113.609 126.167 112.512 126.167C111.114 126.167 109.882 125.889 108.817 125.332C107.752 124.776 106.926 124.005 106.338 123.02C105.766 122.019 105.48 120.89 105.48 119.635C105.48 118.395 105.758 117.283 106.314 116.297C106.886 115.296 107.673 114.517 108.674 113.961C109.675 113.405 110.804 113.127 112.059 113.127C113.299 113.127 114.403 113.405 115.373 113.961C116.358 114.502 117.121 115.272 117.661 116.274C118.218 117.259 118.496 118.403 118.496 119.706ZM112.059 115.511C111.106 115.511 110.295 115.797 109.628 116.369C108.976 116.925 108.579 117.672 108.436 118.61H115.659C115.532 117.688 115.142 116.941 114.491 116.369C113.839 115.797 113.029 115.511 112.059 115.511ZM128.629 126.167C127.596 126.167 126.587 126.032 125.602 125.762C124.616 125.491 123.829 125.15 123.241 124.737L124.386 122.472C124.958 122.853 125.641 123.163 126.436 123.402C127.246 123.624 128.041 123.735 128.82 123.735C130.6 123.735 131.49 123.266 131.49 122.329C131.49 121.884 131.259 121.574 130.799 121.399C130.354 121.224 129.63 121.057 128.629 120.898C127.58 120.739 126.722 120.557 126.054 120.35C125.403 120.143 124.831 119.786 124.338 119.277C123.861 118.753 123.623 118.03 123.623 117.108C123.623 115.9 124.124 114.939 125.125 114.223C126.142 113.492 127.509 113.127 129.225 113.127C130.099 113.127 130.973 113.23 131.847 113.437C132.722 113.627 133.437 113.89 133.993 114.223L132.849 116.488C131.768 115.852 130.552 115.535 129.201 115.535C128.327 115.535 127.66 115.67 127.199 115.94C126.754 116.194 126.531 116.536 126.531 116.965C126.531 117.442 126.77 117.783 127.246 117.99C127.739 118.181 128.494 118.363 129.511 118.538C130.528 118.697 131.363 118.88 132.014 119.087C132.666 119.293 133.222 119.643 133.683 120.136C134.16 120.628 134.398 121.327 134.398 122.233C134.398 123.425 133.882 124.379 132.849 125.094C131.816 125.809 130.409 126.167 128.629 126.167ZM144.235 126.167C143.202 126.167 142.193 126.032 141.208 125.762C140.223 125.491 139.436 125.15 138.848 124.737L139.992 122.472C140.564 122.853 141.248 123.163 142.042 123.402C142.853 123.624 143.647 123.735 144.426 123.735C146.206 123.735 147.096 123.266 147.096 122.329C147.096 121.884 146.866 121.574 146.405 121.399C145.96 121.224 145.237 121.057 144.235 120.898C143.187 120.739 142.328 120.557 141.661 120.35C141.009 120.143 140.437 119.786 139.944 119.277C139.468 118.753 139.229 118.03 139.229 117.108C139.229 115.9 139.73 114.939 140.731 114.223C141.748 113.492 143.115 113.127 144.831 113.127C145.706 113.127 146.58 113.23 147.454 113.437C148.328 113.627 149.043 113.89 149.599 114.223L148.455 116.488C147.374 115.852 146.159 115.535 144.808 115.535C143.934 115.535 143.266 115.67 142.805 115.94C142.36 116.194 142.138 116.536 142.138 116.965C142.138 117.442 142.376 117.783 142.853 117.99C143.345 118.181 144.1 118.363 145.118 118.538C146.135 118.697 146.969 118.88 147.621 119.087C148.272 119.293 148.829 119.643 149.289 120.136C149.766 120.628 150.005 121.327 150.005 122.233C150.005 123.425 149.488 124.379 148.455 125.094C147.422 125.809 146.015 126.167 144.235 126.167Z" fill="white"/>
</svg>
